<svg width="24" height="24" viewBox="0 0 24 24"  fill="none" xmlns="http://www.w3.org/2000/svg ">
<rect width="24" height="24" fill="#C7C7C7"/>
<g id="online store (themes)" clip-path="url(#clip0_927_44926)">
<rect width="1440" height="992" transform="translate(-30 -879)" fill="#F7F8F8"/>
<g id="theme side">
<rect id="Rectangle 1" x="-30" y="-879" width="254" height="1311" fill="white"/>
<g id="Group 1000010445">
<g id="Frame 1000010252">
<g id="Group 1000002156">
<g id="Group 1000010249">
<path id="Vector" d="M11.055 2.6001C11.4836 2.6001 11.9122 2.6001 12.3409 2.6001C12.5701 2.62899 12.8003 2.65409 13.029 2.68772C14.9387 2.96716 16.6315 3.72971 18.0775 5.0123C19.8323 6.56912 20.9017 8.51101 21.2669 10.8356C21.31 11.1084 21.3417 11.3826 21.3791 11.6559V12.9442C21.3503 13.1744 21.3252 13.405 21.2915 13.6347C21.0135 15.5416 20.2566 17.2329 18.9835 18.6784C17.4281 20.4446 15.4858 21.5207 13.1588 21.8878C12.887 21.9309 12.6137 21.9631 12.3409 22H11.055C11.0005 21.9877 10.947 21.9711 10.892 21.964C10.5619 21.92 10.2275 21.8972 9.90119 21.8328C7.52735 21.3639 5.57315 20.185 4.08406 18.2773C2.40267 16.1237 1.75427 13.6669 2.10997 10.9611C2.36052 9.05568 3.13822 7.37098 4.4066 5.92783C5.96248 4.15834 7.90673 3.08083 10.236 2.71235C10.5079 2.66925 10.7817 2.63751 11.055 2.6001ZM20.5962 12.3019C20.5991 7.37855 16.6078 3.37969 11.6953 3.38443C6.78233 3.38917 2.81805 7.35724 2.80005 12.2887C2.78205 17.2012 6.76954 21.2048 11.6915 21.2157C16.6002 21.2261 20.5934 17.2291 20.5962 12.3019Z" fill="#8C9091"/>
<path id="Vector_2" d="M11.3112 14.0208C11.2724 13.3425 11.4708 12.6672 12.0236 12.1362C12.2438 11.9245 12.5095 11.7587 12.7634 11.5854C13.2062 11.2823 13.4885 10.8749 13.5908 10.3473C13.8314 9.10166 12.8624 7.98295 11.5987 8.04452C10.5961 8.0933 9.81598 8.88806 9.76909 9.90731C9.75346 10.2531 9.49723 10.4496 9.22063 10.3246C9.03497 10.2407 8.97908 10.0792 8.98476 9.88931C9.02171 8.63514 9.93297 7.55763 11.1677 7.30755C12.6431 7.00822 14.1398 8.01421 14.3657 9.50567C14.5371 10.6358 14.1435 11.5612 13.1963 12.2286C13.0111 12.3588 12.8126 12.4739 12.6417 12.6203C12.2665 12.9414 12.088 13.361 12.0842 13.855C12.0823 14.0947 12.087 14.3348 12.0828 14.5745C12.078 14.8444 11.9208 15.0216 11.6972 15.0197C11.4737 15.0178 11.3198 14.8421 11.3122 14.5716C11.3079 14.4139 11.3112 14.2562 11.3112 14.0217V14.0208Z" fill="#8C9091"/>
<path id="Vector_3" d="M11.6972 17.341C11.2643 17.341 10.911 16.9872 10.9181 16.56C10.9252 16.1371 11.2742 15.7904 11.6939 15.7894C12.1206 15.7885 12.4792 16.1513 12.4725 16.5761C12.4659 17.0019 12.1225 17.3406 11.6967 17.341H11.6972Z" fill="#8C9091"/>
</g>
</g>
</g>
</g>
</g>
</g>
<defs>
<clipPath id="clip0_927_44926">
<rect width="1440" height="992" fill="white" transform="translate(-30 -879)"/>
</clipPath>
</defs>
</svg>
