<svg width="24" height="24" viewBox="0 0 24 24" fill="none" xmlns="http://www.w3.org/2000/svg">
<rect width="24" height="24" fill="#C7C7C7"/>
<g id="online store (themes)" clip-path="url(#clip0_927_44926)">
<rect width="1440" height="992" transform="translate(-30 -793)" fill="#F7F8F8"/>
<g id="theme side">
<rect id="Rectangle 1" x="-30" y="-793" width="254" height="1311" fill="white"/>
<g id="Group 1000010445">
<g id="Frame 1000010251">
<g id="Group 1000002156">
<g id="Group 1000010248">
<path id="Vector" d="M21.4261 11.3146C21.3558 11.1644 21.3014 11.0037 21.212 10.8655C20.9406 10.4433 20.504 10.355 20.0464 10.3091C19.7061 10.2751 19.3673 10.2277 19.028 10.1873C18.9277 10.1753 18.8688 10.1359 18.8294 10.0286C18.7251 9.74322 18.5933 9.46828 18.486 9.18385C18.4636 9.12497 18.4751 9.02617 18.512 8.97677C18.76 8.64194 19.019 8.3151 19.275 7.98577C19.755 7.36851 19.7211 6.76922 19.1727 6.21883C18.7944 5.83959 18.4177 5.45986 18.0365 5.08362C17.54 4.59311 16.9237 4.55668 16.3693 4.98233C16.0285 5.2438 15.6872 5.50427 15.3539 5.77473C15.2556 5.85457 15.1852 5.85307 15.0744 5.80067C14.8164 5.67892 14.551 5.57114 14.283 5.47433C14.1727 5.43441 14.1223 5.37803 14.1094 5.26675C14.059 4.84111 13.9981 4.41597 13.9532 3.98983C13.8833 3.33066 13.3898 2.87557 12.7292 2.87408C12.1503 2.87258 11.571 2.87258 10.9922 2.87408C10.341 2.87557 9.84447 3.32816 9.77262 3.97485C9.72521 4.401 9.66683 4.82614 9.61743 5.25178C9.60396 5.36904 9.55506 5.43391 9.43779 5.47682C9.16434 5.57712 8.89439 5.6889 8.62942 5.81115C8.52863 5.85756 8.46575 5.84807 8.38242 5.78121C8.05708 5.52024 7.72674 5.26625 7.39691 5.01126C6.79213 4.54271 6.18685 4.58263 5.64394 5.12554C5.2697 5.49978 4.89446 5.87253 4.52121 6.24827C4.01822 6.75425 3.97631 7.36352 4.40694 7.92788C4.67091 8.27419 4.93687 8.61949 5.20982 8.9588C5.27968 9.04563 5.27768 9.109 5.23327 9.2063C5.11252 9.47127 4.99875 9.74073 4.89895 10.0147C4.85903 10.1245 4.80264 10.1749 4.69136 10.1878C4.26572 10.2382 3.84108 10.3021 3.41444 10.3445C2.77074 10.4084 2.30019 10.9064 2.29819 11.5501C2.2962 12.1354 2.29669 12.7202 2.29819 13.3055C2.29969 13.9572 2.75178 14.4542 3.39747 14.5256C3.82362 14.5725 4.24876 14.6314 4.6749 14.6808C4.79117 14.6942 4.85653 14.7411 4.89945 14.8599C4.99825 15.1338 5.11202 15.4033 5.23477 15.6678C5.28068 15.7676 5.27469 15.8304 5.20683 15.9148C4.94585 16.2401 4.69286 16.5715 4.43738 16.9008C3.96733 17.5061 4.00575 18.1084 4.54965 18.6528C4.9234 19.027 5.29714 19.4017 5.67239 19.775C6.18386 20.2835 6.79113 20.3224 7.36697 19.8813C7.71277 19.6168 8.05309 19.3444 8.40288 19.0849C8.45228 19.048 8.55158 19.038 8.61096 19.0604C8.89539 19.1677 9.17083 19.2984 9.45576 19.4032C9.56304 19.4427 9.60096 19.504 9.61344 19.6033C9.66483 20.0165 9.72322 20.4292 9.76813 20.8428C9.83349 21.4386 10.1169 21.7884 10.6953 21.9691C10.7117 21.9741 10.7252 21.9895 10.7402 22C11.4872 22 12.2347 22 12.9816 22C12.9966 21.9895 13.0101 21.9741 13.0266 21.9691C13.6039 21.7889 13.8893 21.4371 13.9537 20.8428C13.9986 20.4292 14.0575 20.0165 14.1084 19.6033C14.1208 19.502 14.1608 19.4447 14.2676 19.4057C14.553 19.3014 14.8284 19.1702 15.1124 19.0629C15.1717 19.0405 15.2705 19.049 15.3199 19.0854C15.6742 19.3488 16.0195 19.6248 16.3698 19.8937C16.9207 20.3164 17.5434 20.2775 18.0375 19.7885C18.4182 19.4117 18.7954 19.032 19.1737 18.6533C19.7171 18.1089 19.755 17.5071 19.2849 16.9013C19.0255 16.567 18.7625 16.2356 18.5105 15.8958C18.4736 15.8464 18.4646 15.7476 18.487 15.6882C18.5918 15.4098 18.7216 15.1403 18.8229 14.8609C18.8663 14.7411 18.9326 14.6962 19.0479 14.6828C19.4736 14.6329 19.8992 14.578 20.3248 14.5266C20.6886 14.4827 20.9955 14.3315 21.2001 14.0221C21.2939 13.8799 21.3513 13.7137 21.4251 13.5585V11.317L21.4261 11.3146ZM18.8398 17.7401C18.7725 17.8454 18.7246 17.9552 18.6467 18.0355C18.2645 18.4277 17.8748 18.8129 17.4866 19.1992C17.263 19.4217 17.0973 19.4327 16.8498 19.2416C16.4167 18.9067 15.9836 18.5719 15.5525 18.2346C15.3873 18.1054 15.2256 18.1004 15.033 18.1872C14.5979 18.3828 14.1583 18.5704 13.7117 18.7376C13.4896 18.8209 13.3833 18.9526 13.3564 19.1832C13.2925 19.7326 13.2207 20.281 13.1428 20.8279C13.1084 21.0689 12.9797 21.1901 12.7461 21.1931C12.1548 21.2006 11.5635 21.2006 10.9722 21.1926C10.7472 21.1896 10.6174 21.0659 10.5855 20.8398C10.5081 20.2924 10.4328 19.7441 10.3709 19.1947C10.344 18.9551 10.2352 18.8204 10.0066 18.7351C9.56005 18.5679 9.12043 18.3808 8.68531 18.1852C8.49021 18.0974 8.33103 18.1123 8.16686 18.2411C7.73623 18.5789 7.3036 18.9147 6.86947 19.2481C6.62746 19.4342 6.4613 19.4222 6.24673 19.2081C5.87598 18.8394 5.50722 18.4686 5.13747 18.0989C4.85803 17.8189 4.85054 17.6802 5.09705 17.3619C5.41341 16.9537 5.72827 16.544 6.04913 16.1398C6.18984 15.9627 6.19583 15.794 6.10202 15.5879C5.90691 15.1593 5.72328 14.7247 5.55862 14.2841C5.47578 14.0625 5.34455 13.9547 5.11351 13.9278C4.56412 13.8639 4.01573 13.7916 3.46833 13.7142C3.22832 13.6803 3.10606 13.552 3.10307 13.3185C3.09558 12.7272 3.09558 12.1359 3.10407 11.5446C3.10706 11.3185 3.22981 11.1898 3.45685 11.1579C4.00425 11.0805 4.55265 11.0042 5.10204 10.9438C5.35253 10.9164 5.48127 10.7951 5.5676 10.5616C5.72877 10.1259 5.9119 9.69781 6.10402 9.27517C6.19483 9.07607 6.19034 8.9109 6.05512 8.73974C5.7163 8.30961 5.38097 7.87698 5.04715 7.44286C4.86102 7.20135 4.873 7.03668 5.08856 6.82062C5.47079 6.43689 5.85402 6.05416 6.23775 5.67193C6.4603 5.45038 6.62696 5.4379 6.87496 5.62852C7.3041 5.95835 7.73273 6.28919 8.15788 6.62401C8.32753 6.75774 8.4917 6.77371 8.69279 6.68289C9.12742 6.48679 9.56753 6.30016 10.0136 6.1325C10.2347 6.04917 10.3425 5.91844 10.3689 5.6869C10.4323 5.13751 10.5051 4.58911 10.583 4.04172C10.6179 3.79522 10.7501 3.67845 10.9981 3.67596C11.571 3.66947 12.1438 3.66947 12.7162 3.67546C12.9752 3.67795 13.1059 3.79272 13.1423 4.0507C13.2197 4.5981 13.2915 5.14649 13.3564 5.69588C13.3828 5.91893 13.4876 6.04817 13.7017 6.12851C14.1423 6.29468 14.5784 6.47431 15.0061 6.67092C15.2191 6.76872 15.3898 6.76423 15.5734 6.61802C15.9971 6.2807 16.4267 5.95137 16.8553 5.62103C17.0944 5.4369 17.263 5.44888 17.4786 5.66345C17.8623 6.04568 18.245 6.42841 18.6273 6.81213C18.8493 7.03518 18.8613 7.20035 18.6702 7.44935C18.3403 7.87848 18.01 8.30712 17.6742 8.73176C17.54 8.90192 17.524 9.06409 17.6148 9.26569C17.8114 9.70031 17.998 10.1399 18.1657 10.5865C18.249 10.8081 18.3803 10.9149 18.6113 10.9418C19.1667 11.0062 19.7216 11.08 20.2749 11.1589C20.492 11.1898 20.6148 11.319 20.6182 11.5346C20.6272 12.1319 20.6277 12.7297 20.6197 13.327C20.6167 13.5525 20.4935 13.6808 20.266 13.7127C19.7121 13.7906 19.1577 13.8634 18.6023 13.9293C18.3793 13.9557 18.2505 14.0615 18.1692 14.2751C17.9995 14.7207 17.8144 15.1613 17.6188 15.5959C17.529 15.795 17.5335 15.9592 17.6692 16.1313C18.0085 16.561 18.3443 16.9936 18.6757 17.4292C18.741 17.515 18.7785 17.6218 18.8393 17.7401H18.8398Z" fill="#8C9091"/>
<path id="Vector_2" d="M11.8571 16.4266C14.0481 16.4301 15.8515 14.6317 15.855 12.4412C15.8585 10.2511 14.0591 8.44722 11.8685 8.44373C9.67895 8.44024 7.87359 10.2406 7.8711 12.4297C7.8686 14.6208 9.66648 16.4231 11.8571 16.4266ZM11.8715 15.6153C10.1086 15.6183 8.68595 14.2061 8.68246 12.4487C8.67897 10.6847 10.0886 9.26108 11.8446 9.25509C13.6165 9.24861 15.0421 10.6647 15.0431 12.4317C15.0441 14.1936 13.6305 15.6128 11.8715 15.6158V15.6153Z" fill="#8C9091"/>
</g>
</g>
</g>
</g>
</g>
</g>
<defs>
<clipPath id="clip0_927_44926">
<rect width="1440" height="992" fill="white" transform="translate(-30 -793)"/>
</clipPath>
</defs>
</svg>
